<?xml version="1.0" standalone="no"?><!DOCTYPE svg PUBLIC "-//W3C//DTD SVG 1.1//EN" "http://www.w3.org/Graphics/SVG/1.1/DTD/svg11.dtd"><svg t="1770277611453" class="icon" viewBox="0 0 1024 1024" version="1.1" xmlns="http://www.w3.org/2000/svg" p-id="4709" width="16" height="16" xmlns:xlink="http://www.w3.org/1999/xlink"><path d="M956.587334 98.726838l-84.646991 0.039509c-1.412429-0.135317-2.740903-0.431631-4.242227-0.431631-1.516139 0-2.874244 0.316068-4.336059 0.451385l-291.21627 0.13828 0.093833-52.116669c0-25.863261-21.556833-46.807712-47.410217-46.807712-4.178025 0-7.714037 0.352613-11.37055 0.629173C509.505037 0.353601 505.729011 0 501.165778 0c-25.840544 0-46.804749 20.944451-46.804749 46.807712l0.217297 52.175931-284.00399 0.135317c-3.325629-0.903757-6.864604-1.53293-10.775947-1.53293-3.936036 0-7.513532 0.629173-10.896448 1.552685l-83.6415 0.019754c-25.840544 0-43.797163 10.366046-43.797163 36.224369 0 25.843507 17.936865 40.043854 43.797163 40.043854l54.276797-0.019754 0.395085 758.808423c2.103828 49.657264 39.609261 89.32875 89.834459 89.32875l46.827466 0 0 0.409901 514.984592-0.316068 0-0.093833 46.802773 0c51.632689 0 88.405239-41.775315 88.523764-93.358619l-0.409901-755.153886 50.091857-0.017779c25.843507 0 46.807712-14.180593 46.807712-40.043854C1003.394058 109.112639 982.43973 98.726838 956.587334 98.726838zM827.774762 852.048516c0.31113 61.524634-11.472285 84.133381-53.069812 91.017739l-531.956462 0.316068c-25.998578-5.565762-38.644265-18.959148-43.816918-47.578128l-0.373355-720.435779 629.190866-0.316068 0.390147 767.959583L827.774762 852.048516zM395.557544 255.567737c-21.731658 0-39.332701 17.59808-39.332701 39.332701l0 530.993442c0 21.734621 17.601043 39.335664 39.332701 39.335664 21.711904 0 39.332701-17.601043 39.332701-39.335664L434.890245 294.900439C434.890245 273.165817 417.269448 255.567737 395.557544 255.567737zM631.555727 255.567737c-21.729683 0-39.335664 17.59808-39.335664 39.332701l0 530.993442c0 21.734621 17.605982 39.335664 39.335664 39.335664 21.709928 0 39.335664-17.601043 39.335664-39.335664L670.891391 294.900439C670.891391 273.165817 653.265655 255.567737 631.555727 255.567737z" fill="#fcf9f9" p-id="4710"></path></svg>