<?xml version="1.0" standalone="no"?><!DOCTYPE svg PUBLIC "-//W3C//DTD SVG 1.1//EN" "http://www.w3.org/Graphics/SVG/1.1/DTD/svg11.dtd"><svg t="1770277808890" class="icon" viewBox="0 0 1024 1024" version="1.1" xmlns="http://www.w3.org/2000/svg" p-id="7998" width="16" height="16" xmlns:xlink="http://www.w3.org/1999/xlink"><path d="M739.552 950.048H284.448c-108.096 0-199.104-91.008-199.104-199.104V295.84c0-108.096 91.008-199.104 199.104-199.104h312.896c17.056 0 28.448 11.392 28.448 28.448s-11.392 28.448-28.448 28.448H284.448a140.832 140.832 0 0 0-142.208 142.208v455.104a140.832 140.832 0 0 0 142.208 142.208h455.104a140.832 140.832 0 0 0 142.208-142.208V420.992c0-17.056 11.392-28.448 28.448-28.448s28.448 11.392 28.448 28.448v329.952c0 108.096-91.008 199.104-199.104 199.104z m-238.944-341.344c-17.056 0-28.448-11.392-28.448-28.448 0-5.696 0-11.392 5.696-17.056l358.4-420.992c11.392-11.392 28.448-11.392 39.808-5.696s11.392 28.448 5.696 39.808l-358.4 420.992c-5.696 5.696-11.392 11.392-22.752 11.392z" p-id="7999" fill="#fcf9f9"></path></svg>